<svg width="502" height="282" fill="none" xmlns="http://www.w3.org/2000/svg"><path d="m242.634 142.71-68.006 71.487.01.043c2.087 7.762 9.243 13.478 17.741 13.478 3.395 0 6.583-.91 9.319-2.505l.216-.129 76.539-43.754-35.819-38.62Z" fill="#EA4335"/><path d="m311.433 130.537-.065-.043-33.047-18.977-37.232 32.815 37.363 36.998 32.873-18.785c5.762-3.084 9.675-9.099 9.675-16.036.001-6.894-3.858-12.878-9.567-15.972Z" fill="#FBBC04"/><path d="M174.623 78.517a17.733 17.733 0 0 0-.623 4.681V209.52c.067 1.813.214 3.192.627 4.678l70.345-69.657-70.349-66.023Z" fill="#4285F4"/><path d="m243.135 146.359 35.186-34.842-76.45-43.915A18.544 18.544 0 0 0 192.379 65c-8.498 0-15.665 5.728-17.751 13.5l-.005.018 68.512 67.841Z" fill="#34A853"/></svg>