<svg width="472" height="472" viewBox="0 0 472 472" fill="none" xmlns="http://www.w3.org/2000/svg">
<path d="M471 236C471 365.787 365.787 471 236 471C106.213 471 1 365.787 1 236C1 106.213 106.213 1 236 1C365.787 1 471 106.213 471 236Z" fill="#888D91"/>
<path d="M431 235.5C431 343.472 343.472 431 235.5 431C127.528 431 40 343.472 40 235.5C40 127.528 127.528 40 235.5 40C343.472 40 431 127.528 431 235.5Z" fill="#4D585E"/>
<path d="M246.5 272H331L357 241.5V134L246.5 272Z" fill="white"/>
<path d="M114 134.5V241.5L192.5 337.5H278.5L114 134.5Z" fill="white"/>
<path d="M471 236C471 365.787 365.787 471 236 471C106.213 471 1 365.787 1 236C1 106.213 106.213 1 236 1C365.787 1 471 106.213 471 236Z" stroke="white"/>
<path d="M431 235.5C431 343.472 343.472 431 235.5 431C127.528 431 40 343.472 40 235.5C40 127.528 127.528 40 235.5 40C343.472 40 431 127.528 431 235.5Z" stroke="white"/>
<path d="M246.5 272H331L357 241.5V134L246.5 272Z" stroke="white"/>
<path d="M114 134.5V241.5L192.5 337.5H278.5L114 134.5Z" stroke="white"/>
</svg>
