<svg width="53" height="53" viewBox="0 0 53 53" fill="none" xmlns="http://www.w3.org/2000/svg">
<path d="M45.2764 7.71164C42.8347 5.25755 39.9263 3.31177 36.7208 1.98779C33.5154 0.663807 30.0771 -0.0118723 26.6065 0.000157859C12.0648 0.000157859 0.213066 11.7926 0.213066 26.2616C0.213066 30.8991 1.43819 35.4041 3.72864 39.379L0 53L13.9824 49.343C17.8442 51.4365 22.1854 52.5495 26.6065 52.5495C41.1482 52.5495 53 40.757 53 26.2881C53 19.2656 50.2568 12.6671 45.2764 7.71164ZM26.6065 48.0975C22.6648 48.0975 18.803 47.0375 15.4206 45.05L14.6216 44.573L6.31206 46.746L8.52261 38.69L7.98995 37.8685C5.80003 34.389 4.63721 30.3671 4.63417 26.2616C4.63417 14.2306 14.4884 4.42565 26.5799 4.42565C32.4392 4.42565 37.9523 6.70464 42.0804 10.8386C44.1245 12.8631 45.7443 15.2712 46.8461 17.9232C47.9479 20.5752 48.5097 23.4184 48.499 26.2881C48.5523 38.319 38.698 48.0975 26.6065 48.0975ZM38.6447 31.7736C37.9789 31.4556 34.7296 29.8656 34.1437 29.6271C33.5312 29.4151 33.105 29.3091 32.6523 29.9451C32.1995 30.6076 30.9477 32.0916 30.5749 32.5156C30.202 32.9661 29.8025 33.0191 29.1367 32.6746C28.4709 32.3566 26.3402 31.6411 23.8367 29.4151C21.8658 27.6661 20.5608 25.5196 20.1613 24.8571C19.7884 24.1946 20.108 23.8501 20.4543 23.5056C20.7472 23.2141 21.1201 22.7371 21.4397 22.3661C21.7593 21.9951 21.8925 21.7036 22.1055 21.2796C22.3186 20.8291 22.2121 20.4581 22.0523 20.1401C21.8925 19.8221 20.5608 16.5891 20.0281 15.2641C19.4955 13.9921 18.9362 14.1511 18.5367 14.1246H17.2583C16.8055 14.1246 16.1131 14.2836 15.5005 14.9461C14.9146 15.6086 13.21 17.1986 13.21 20.4316C13.21 23.6646 15.5804 26.7916 15.9 27.2156C16.2196 27.6661 20.5608 34.2911 27.1658 37.1265C28.7372 37.8155 29.9623 38.213 30.9211 38.5045C32.4925 39.008 33.9307 38.9285 35.0759 38.7695C36.3543 38.584 38.991 37.1795 39.5236 35.6426C40.0829 34.1056 40.0829 32.8071 39.8965 32.5156C39.71 32.2241 39.3106 32.0916 38.6447 31.7736Z" fill="white"/>
</svg>
